# xmcd
#
# Track frame offsets:
#	225
#	12738
#	27295
#	42153
#	58640
#	72565
#	90257
#	102590
#	117497
#	130220
#
# Disc length: 1916 seconds
#
# Revision: 1
# Processed by: cddbd v1.4PL0 Copyright (c) Steve Scherf et al.
# Submitted via: CDmax 1.8
#
DISCID=8c07790a
DTITLE=Darrell McCall - Pictures Can't Talk Back (featuring Johnny Paycheck)
DYEAR=1900
DGENRE=Country
TTITLE0=Pictures can't talk back (featuring Johnny Paycheck)
TTITLE1=Nothing to lose but the blues
TTITLE2=I've just lost my favorite girl
TTITLE3=Just ask me for a lifetime
TTITLE4=Farm boy blues
TTITLE5=While I dream of San Antone
TTITLE6=So easy to forgive her
TTITLE7=Jeannie in a bottle
TTITLE8=Will you ever know
TTITLE9=Country girl
EXTD=
EXTT0=
EXTT1=
EXTT2=
EXTT3=
EXTT4=
EXTT5=
EXTT6=
EXTT7=
EXTT8=
EXTT9=
PLAYORDER=
